<svg xmlns="http://www.w3.org/2000/svg" version="1.1" xmlns:xlink="http://www.w3.org/1999/xlink" xmlns:svgjs="http://svgjs.com/svgjs" width="400" height="393.93939393939394"><svg id="SvgjsSvg1006" version="1.1" xmlns="http://www.w3.org/2000/svg" xmlns:xlink="http://www.w3.org/1999/xlink" width="400" height="393.93939393939394" viewBox="0, 0, 400,393.93939393939394"><g id="SvgjsG1005"><path id="SvgjsPath1004" d="M179.212 0.249 C 178.833 0.360,178.522 0.627,178.522 0.840 C 178.522 1.054,178.345 1.119,178.128 0.985 C 177.911 0.851,177.734 0.929,177.734 1.159 C 177.734 1.389,177.532 1.576,177.284 1.576 C 176.698 1.576,174.429 3.954,174.322 4.680 C 174.277 4.989,174.061 5.352,173.842 5.487 C 173.623 5.622,173.401 6.571,173.348 7.595 C 173.295 8.620,173.097 9.458,172.908 9.458 C 172.719 9.458,172.674 9.635,172.808 9.852 C 172.942 10.069,172.896 10.246,172.705 10.246 C 172.515 10.246,172.323 11.842,172.278 13.793 C 172.222 16.245,172.337 17.340,172.649 17.340 C 172.963 17.340,172.943 17.531,172.586 17.961 C 172.161 18.473,172.162 18.639,172.588 18.902 C 172.873 19.078,172.984 19.419,172.835 19.660 C 172.686 19.901,172.752 20.099,172.982 20.099 C 173.249 20.099,173.399 21.580,173.399 24.213 C 173.399 26.531,173.571 28.434,173.793 28.571 C 174.010 28.705,174.187 29.166,174.187 29.596 C 174.187 30.025,174.536 30.857,174.963 31.445 C 175.390 32.032,175.908 33.488,176.114 34.680 C 176.586 37.415,177.511 41.093,177.873 41.680 C 178.305 42.378,177.049 42.820,173.202 43.324 C 166.824 44.159,155.529 46.503,150.947 47.942 C 149.327 48.451,147.634 48.867,147.183 48.867 C 146.733 48.867,146.196 49.008,145.990 49.180 C 145.784 49.352,144.552 49.813,143.251 50.205 C 141.951 50.596,140.621 51.047,140.296 51.207 C 139.970 51.368,138.640 51.822,137.340 52.218 C 136.039 52.614,134.798 53.055,134.581 53.199 C 134.365 53.343,133.300 53.771,132.217 54.150 C 131.133 54.529,129.892 54.993,129.458 55.180 C 122.214 58.311,121.363 58.441,119.167 56.753 C 118.325 56.106,117.457 55.441,117.240 55.276 C 117.022 55.110,115.815 54.193,114.558 53.236 C 113.290 52.271,112.038 50.937,111.747 50.240 C 111.293 49.155,108.768 46.812,108.768 47.476 C 108.768 47.608,108.380 47.354,107.906 46.912 C 107.432 46.470,106.900 46.108,106.724 46.108 C 106.548 46.108,106.404 45.842,106.404 45.517 C 106.404 45.192,106.138 44.926,105.813 44.926 C 105.488 44.926,105.222 44.738,105.222 44.509 C 105.222 44.279,105.067 44.187,104.877 44.304 C 104.688 44.421,104.094 44.122,103.558 43.638 C 101.283 41.587,100.453 40.985,99.898 40.985 C 99.575 40.985,99.310 40.719,99.310 40.394 C 99.310 40.069,99.034 39.803,98.696 39.803 C 98.358 39.803,98.191 39.626,98.325 39.409 C 98.459 39.192,98.292 39.015,97.954 39.015 C 97.616 39.015,97.340 38.818,97.340 38.579 C 97.340 38.339,97.065 38.248,96.728 38.377 C 96.378 38.512,96.219 38.445,96.357 38.222 C 96.490 38.008,96.322 37.833,95.984 37.833 C 95.646 37.833,95.369 37.655,95.369 37.438 C 95.369 37.222,94.926 37.044,94.384 37.044 C 93.771 37.044,93.399 36.821,93.399 36.453 C 93.399 36.128,93.133 35.862,92.808 35.862 C 92.483 35.862,92.217 35.685,92.217 35.468 C 92.217 35.251,91.857 35.074,91.416 35.074 C 90.976 35.074,90.514 34.808,90.389 34.483 C 90.264 34.158,89.915 33.892,89.613 33.892 C 89.311 33.892,89.063 33.759,89.062 33.596 C 89.058 33.196,86.777 31.921,86.064 31.921 C 85.750 31.921,85.390 31.655,85.266 31.330 C 85.141 31.005,84.693 30.739,84.270 30.739 C 83.846 30.739,83.610 30.562,83.744 30.345 C 83.878 30.128,83.641 29.951,83.218 29.951 C 82.795 29.951,82.347 29.685,82.222 29.360 C 82.097 29.034,81.635 28.768,81.195 28.768 C 80.754 28.768,80.394 28.591,80.394 28.374 C 80.394 28.158,80.058 27.980,79.648 27.980 C 79.238 27.980,78.800 27.714,78.675 27.389 C 78.550 27.064,78.243 26.798,77.992 26.798 C 77.389 26.798,72.542 24.406,72.277 23.978 C 72.164 23.795,71.639 23.645,71.110 23.645 C 70.581 23.645,70.148 23.468,70.148 23.251 C 70.148 23.034,69.522 22.857,68.756 22.857 C 67.883 22.857,67.280 22.637,67.138 22.266 C 66.999 21.904,66.401 21.675,65.597 21.675 C 64.874 21.675,64.173 21.498,64.039 21.281 C 63.671 20.684,55.059 20.772,54.405 21.379 C 53.981 21.773,53.930 21.773,54.153 21.379 C 54.306 21.108,54.275 20.887,54.084 20.887 C 53.572 20.887,51.232 23.058,51.232 23.534 C 51.232 23.759,50.966 24.164,50.640 24.433 C 50.315 24.703,50.049 25.331,50.049 25.828 C 50.049 26.325,49.849 26.799,49.605 26.880 C 49.361 26.962,49.072 27.956,48.963 29.089 C 48.854 30.222,48.611 31.245,48.422 31.362 C 48.233 31.478,48.079 33.478,48.079 35.807 C 48.079 38.642,47.918 40.200,47.592 40.527 C 47.239 40.879,47.065 43.708,46.963 50.753 C 46.885 56.110,46.661 60.552,46.465 60.624 C 45.980 60.803,46.007 77.104,46.493 78.013 C 46.705 78.409,46.902 81.190,46.930 84.194 C 46.985 90.073,47.187 91.933,47.733 91.596 C 47.923 91.478,48.079 93.219,48.079 95.464 C 48.079 97.710,48.250 99.718,48.460 99.928 C 48.669 100.137,48.874 101.326,48.915 102.568 C 48.976 104.454,49.106 104.828,49.698 104.828 C 50.213 104.828,50.472 105.232,50.643 106.305 C 50.772 107.118,51.049 108.493,51.259 109.360 C 52.830 115.857,52.404 117.742,48.510 121.508 C 47.227 122.749,45.817 124.456,45.376 125.302 C 44.935 126.147,44.402 127.162,44.192 127.557 C 43.385 129.070,42.041 132.267,41.736 133.399 C 41.561 134.049,40.866 136.177,40.193 138.128 C 39.519 140.079,38.794 142.473,38.581 143.448 C 37.361 149.031,36.974 150.956,36.675 152.906 C 36.493 154.099,36.045 157.025,35.681 159.409 C 35.317 161.793,34.799 166.364,34.529 169.567 C 33.935 176.621,32.977 178.714,32.528 173.940 C 32.071 169.083,31.733 167.359,31.205 167.183 C 30.919 167.088,30.718 167.250,30.759 167.544 C 30.916 168.689,30.665 174.356,30.478 173.892 C 30.369 173.621,29.958 173.399,29.566 173.399 C 29.174 173.399,28.757 173.149,28.639 172.843 C 28.522 172.537,27.807 172.063,27.051 171.789 C 26.295 171.516,25.455 170.879,25.185 170.375 C 24.915 169.871,24.477 169.458,24.212 169.458 C 23.947 169.458,23.628 169.192,23.503 168.867 C 23.378 168.542,22.916 168.276,22.475 168.276 C 22.013 168.276,21.675 168.016,21.675 167.661 C 21.675 167.324,21.529 167.137,21.351 167.247 C 20.989 167.471,19.704 166.118,19.704 165.513 C 19.704 165.298,19.514 165.123,19.282 165.123 C 18.785 165.123,17.734 164.139,17.734 163.673 C 17.734 163.495,16.989 162.551,16.079 161.576 C 15.169 160.601,14.460 159.670,14.503 159.507 C 14.546 159.345,14.383 159.256,14.141 159.310 C 13.899 159.365,13.652 159.121,13.592 158.770 C 13.453 157.949,12.219 156.059,11.822 156.059 C 11.655 156.059,11.224 155.438,10.864 154.680 C 10.122 153.116,9.151 152.904,8.092 154.074 C 7.392 154.847,7.497 156.059,8.263 156.059 C 8.487 156.059,8.670 156.502,8.670 157.044 C 8.670 157.586,8.828 158.030,9.021 158.030 C 9.215 158.030,9.484 158.473,9.620 159.015 C 9.756 159.557,10.041 160.000,10.254 160.000 C 10.466 160.000,10.640 160.266,10.640 160.591 C 10.640 160.916,10.906 161.182,11.232 161.182 C 11.603 161.182,11.823 161.557,11.823 162.191 C 11.823 162.745,11.980 163.102,12.172 162.983 C 12.364 162.865,12.618 163.138,12.737 163.591 C 12.855 164.044,13.141 164.297,13.372 164.154 C 13.612 164.006,13.793 164.204,13.793 164.611 C 13.793 165.006,14.236 165.806,14.778 166.391 C 15.320 166.975,15.764 167.600,15.764 167.780 C 15.764 167.959,16.299 168.422,16.953 168.808 C 17.607 169.195,18.040 169.676,17.915 169.879 C 17.790 170.081,17.875 170.246,18.105 170.246 C 18.672 170.246,20.090 171.700,19.803 171.987 C 19.677 172.113,19.869 172.217,20.230 172.217 C 20.591 172.217,20.887 172.394,20.887 172.611 C 20.887 172.828,21.134 173.005,21.436 173.005 C 21.738 173.005,22.087 173.271,22.211 173.596 C 22.336 173.921,22.670 174.187,22.954 174.187 C 23.238 174.187,23.758 174.498,24.110 174.877 C 25.415 176.283,26.725 177.340,27.162 177.340 C 27.410 177.340,28.148 177.888,28.802 178.557 L 29.992 179.774 29.909 184.271 C 29.864 186.745,29.677 188.768,29.495 188.768 C 29.312 188.768,29.163 189.921,29.163 191.330 C 29.163 192.775,29.334 193.892,29.557 193.892 C 29.773 193.892,29.951 194.069,29.951 194.286 C 29.951 194.716,27.634 194.825,26.635 194.441 C 26.294 194.310,26.112 194.044,26.232 193.850 C 26.352 193.656,25.819 193.498,25.048 193.498 C 24.276 193.498,23.645 193.320,23.645 193.103 C 23.645 192.887,23.325 192.709,22.932 192.709 C 22.540 192.709,21.875 192.449,21.455 192.131 C 21.034 191.813,20.221 191.547,19.648 191.540 C 19.075 191.533,18.513 191.283,18.399 190.986 C 18.284 190.688,17.555 190.325,16.779 190.179 C 16.002 190.034,15.026 189.549,14.610 189.102 C 14.194 188.656,13.661 188.409,13.426 188.554 C 13.192 188.700,12.910 188.586,12.800 188.301 C 12.691 188.016,12.152 187.757,11.603 187.725 C 11.054 187.693,10.208 187.206,9.723 186.642 C 9.239 186.077,8.632 185.616,8.375 185.616 C 8.119 185.616,7.365 185.084,6.700 184.433 C 6.034 183.783,5.230 183.251,4.913 183.251 C 4.595 183.251,4.335 183.112,4.335 182.942 C 4.335 182.407,2.090 181.281,1.023 181.281 C -0.715 181.281,-0.321 182.918,1.970 185.222 C 3.054 186.311,3.941 187.078,3.941 186.926 C 3.941 186.774,4.302 187.038,4.744 187.512 C 5.186 187.986,5.807 188.374,6.124 188.374 C 6.440 188.374,6.700 188.640,6.700 188.966 C 6.700 189.291,6.966 189.557,7.291 189.557 C 7.616 189.557,7.882 189.734,7.882 189.951 C 7.882 190.167,8.236 190.345,8.670 190.345 C 9.103 190.345,9.458 190.501,9.458 190.691 C 9.458 190.882,10.005 191.264,10.674 191.541 C 11.343 191.818,12.172 192.327,12.518 192.673 C 12.863 193.018,13.261 193.300,13.402 193.300 C 13.841 193.300,16.742 194.861,16.880 195.172 C 16.952 195.335,17.418 195.468,17.916 195.468 C 18.413 195.468,19.041 195.734,19.310 196.059 C 19.580 196.384,20.223 196.650,20.738 196.650 C 21.253 196.650,21.675 196.828,21.675 197.044 C 21.675 197.261,22.097 197.438,22.612 197.438 C 23.127 197.438,23.765 197.699,24.029 198.017 C 24.293 198.335,24.625 198.563,24.767 198.524 C 24.909 198.484,26.133 198.704,27.488 199.012 L 29.951 199.571 29.951 217.618 C 29.951 231.790,30.057 235.666,30.443 235.671 C 30.748 235.675,30.786 235.787,30.542 235.967 C 30.014 236.354,29.821 237.368,30.335 237.050 C 30.594 236.890,30.745 237.693,30.755 239.287 C 30.794 245.071,31.006 247.642,31.457 247.793 C 31.765 247.895,31.921 249.074,31.921 251.290 C 31.921 253.129,32.114 254.993,32.350 255.434 C 32.585 255.874,32.826 257.388,32.884 258.798 C 32.942 260.208,33.182 261.480,33.417 261.625 C 33.652 261.770,33.884 263.001,33.933 264.361 C 33.982 265.720,34.150 266.911,34.306 267.007 C 34.461 267.104,34.729 268.027,34.900 269.059 C 35.072 270.091,35.228 271.025,35.248 271.133 C 35.267 271.241,35.428 271.559,35.605 271.838 C 35.783 272.118,35.928 273.149,35.928 274.129 C 35.928 275.304,36.118 275.985,36.486 276.126 C 36.862 276.271,37.044 276.969,37.044 278.269 C 37.044 279.329,37.222 280.197,37.438 280.197 C 37.655 280.197,37.833 280.823,37.833 281.589 C 37.833 282.462,38.053 283.065,38.424 283.207 C 38.789 283.347,39.015 283.947,39.015 284.777 C 39.015 285.515,39.192 286.471,39.409 286.902 C 39.626 287.332,39.993 288.058,40.226 288.514 C 40.563 289.175,40.543 289.278,40.128 289.022 C 39.808 288.825,39.873 289.109,40.296 289.755 C 40.675 290.335,40.985 291.156,40.985 291.579 C 40.985 292.002,41.186 292.415,41.431 292.497 C 41.676 292.579,41.925 293.252,41.983 293.994 C 42.042 294.736,42.284 295.408,42.522 295.488 C 42.761 295.567,42.956 296.039,42.956 296.536 C 42.956 297.034,43.222 297.661,43.547 297.931 C 43.872 298.201,44.138 298.932,44.138 299.556 C 44.138 300.179,44.315 300.690,44.532 300.690 C 44.749 300.690,44.926 301.120,44.926 301.647 C 44.926 302.173,45.192 302.870,45.517 303.195 C 45.842 303.520,46.108 304.153,46.108 304.602 C 46.108 305.051,46.286 305.419,46.502 305.419 C 46.719 305.419,46.897 305.853,46.897 306.384 C 46.897 306.915,47.135 307.492,47.427 307.665 C 47.718 307.838,48.274 308.823,48.662 309.852 C 49.051 310.882,49.521 311.724,49.709 311.724 C 49.896 311.724,50.049 312.149,50.049 312.667 C 50.049 313.186,50.315 313.712,50.640 313.837 C 50.966 313.962,51.232 314.424,51.232 314.864 C 51.232 315.305,51.409 315.665,51.626 315.665 C 51.842 315.665,52.020 315.903,52.020 316.195 C 52.020 316.486,52.463 317.240,53.004 317.870 C 53.546 318.500,53.989 319.331,53.990 319.717 C 53.990 320.103,54.256 320.521,54.581 320.646 C 54.906 320.770,55.172 321.182,55.172 321.561 C 55.172 321.940,55.616 322.728,56.158 323.313 C 56.700 323.897,57.143 324.552,57.143 324.767 C 57.143 324.983,57.599 325.615,58.156 326.172 C 58.713 326.729,59.194 327.519,59.225 327.928 C 59.256 328.336,59.509 328.670,59.788 328.670 C 60.067 328.670,60.296 328.936,60.296 329.261 C 60.296 329.586,60.452 329.852,60.644 329.852 C 60.835 329.852,61.096 330.163,61.223 330.542 C 61.693 331.942,63.144 333.793,63.771 333.793 C 63.980 333.793,64.258 334.219,64.389 334.740 C 64.519 335.261,65.425 336.509,66.402 337.514 C 67.378 338.519,68.177 339.480,68.177 339.651 C 68.177 340.248,75.487 347.980,76.051 347.980 C 76.272 347.980,76.453 348.216,76.453 348.505 C 76.453 348.793,76.897 349.267,77.438 349.557 C 77.980 349.847,78.424 350.320,78.424 350.608 C 78.424 350.897,78.700 351.133,79.038 351.133 C 79.376 351.133,79.543 351.310,79.409 351.527 C 79.275 351.744,79.365 351.921,79.608 351.921 C 79.852 351.921,80.521 352.480,81.095 353.163 C 81.670 353.845,83.077 355.004,84.223 355.736 C 85.368 356.469,86.305 357.329,86.305 357.648 C 86.305 357.966,86.461 358.182,86.651 358.128 C 86.841 358.074,87.510 358.483,88.138 359.037 C 88.766 359.591,89.586 360.162,89.960 360.305 C 90.334 360.449,90.640 360.760,90.640 360.996 C 90.640 361.232,90.818 361.316,91.034 361.182 C 91.251 361.048,91.429 361.215,91.429 361.553 C 91.429 361.891,91.695 362.167,92.020 362.167 C 92.345 362.167,92.611 362.341,92.611 362.554 C 92.611 362.767,93.054 363.052,93.596 363.188 C 94.138 363.324,94.581 363.593,94.581 363.787 C 94.581 363.980,94.853 364.138,95.185 364.138 C 95.517 364.138,95.890 364.403,96.014 364.727 C 96.139 365.051,96.372 365.234,96.533 365.135 C 96.693 365.036,97.378 365.495,98.053 366.155 C 98.728 366.815,99.454 367.248,99.665 367.118 C 99.877 366.987,100.233 367.194,100.456 367.578 C 100.680 367.962,100.868 368.143,100.875 367.980 C 100.881 367.818,101.241 368.039,101.675 368.473 C 102.108 368.906,102.710 369.261,103.012 369.261 C 103.314 369.261,103.663 369.527,103.788 369.852 C 103.913 370.177,104.375 370.443,104.815 370.443 C 105.256 370.443,105.616 370.621,105.616 370.837 C 105.616 371.054,105.863 371.232,106.165 371.232 C 106.467 371.232,106.823 371.516,106.956 371.864 C 107.098 372.233,107.449 372.399,107.801 372.264 C 108.143 372.133,108.502 372.287,108.629 372.617 C 108.752 372.939,109.277 373.202,109.796 373.202 C 110.371 373.202,110.739 373.432,110.739 373.793 C 110.739 374.140,111.106 374.389,111.626 374.397 C 112.585 374.410,113.892 375.232,113.892 375.822 C 113.892 376.023,114.288 376.217,114.772 376.253 C 115.257 376.290,115.715 376.505,115.791 376.731 C 115.866 376.958,116.198 377.143,116.528 377.143 C 117.109 377.143,120.259 379.392,120.525 379.997 C 120.598 380.161,120.908 380.296,121.215 380.296 C 121.522 380.296,121.773 380.562,121.773 380.887 C 121.773 381.212,121.958 381.478,122.185 381.478 C 122.411 381.478,123.074 381.921,123.658 382.463 C 124.243 383.005,124.864 383.448,125.039 383.448 C 125.215 383.448,125.769 383.892,126.271 384.433 C 126.773 384.975,127.305 385.419,127.453 385.419 C 127.601 385.419,128.174 385.906,128.727 386.502 C 129.279 387.099,129.803 387.542,129.890 387.488 C 130.354 387.200,130.837 387.464,130.837 388.004 C 130.837 388.341,131.016 388.508,131.234 388.373 C 131.453 388.238,131.738 388.405,131.868 388.743 C 131.998 389.082,132.332 389.360,132.611 389.360 C 132.890 389.360,133.220 389.626,133.344 389.951 C 133.469 390.276,133.830 390.542,134.146 390.542 C 134.462 390.542,135.070 390.985,135.496 391.527 C 135.922 392.069,136.626 392.512,137.059 392.512 C 137.492 392.512,137.949 392.778,138.074 393.103 C 138.444 394.069,141.181 393.870,142.142 392.808 C 143.151 391.692,143.340 386.310,142.435 384.471 C 142.065 383.719,141.872 382.025,141.872 379.526 C 141.872 377.303,141.693 375.545,141.441 375.294 C 141.205 375.057,140.942 373.483,140.859 371.795 C 140.775 370.107,140.522 368.613,140.297 368.474 C 140.069 368.333,139.877 366.718,139.863 364.822 C 139.845 362.392,139.679 361.291,139.279 360.959 C 138.894 360.640,138.719 359.642,138.719 357.761 C 138.719 355.679,138.602 355.098,138.227 355.323 C 137.939 355.496,137.981 355.310,138.325 354.877 C 138.670 354.444,138.711 354.258,138.424 354.430 C 138.052 354.653,137.917 354.113,137.873 352.240 C 137.781 348.319,137.759 348.173,137.288 348.260 C 136.983 348.317,136.822 347.036,136.776 344.195 C 136.740 341.914,136.541 339.604,136.335 339.062 C 135.573 337.057,135.810 336.578,137.438 336.833 C 138.251 336.961,139.058 337.304,139.231 337.597 C 139.405 337.889,139.848 338.131,140.217 338.134 C 141.156 338.142,143.634 339.041,144.346 339.632 C 144.674 339.904,145.093 340.099,145.279 340.066 C 146.251 339.891,147.405 340.149,147.192 340.493 C 147.043 340.733,147.648 340.887,148.745 340.887 C 150.080 340.887,150.542 341.039,150.542 341.478 C 150.542 341.889,150.955 342.069,151.898 342.069 C 152.644 342.069,153.345 342.217,153.457 342.398 C 153.569 342.579,154.422 342.755,155.352 342.791 C 156.337 342.828,157.227 343.103,157.482 343.447 C 157.742 343.800,158.547 344.039,159.472 344.039 C 160.326 344.039,161.221 344.236,161.462 344.477 C 161.883 344.898,163.310 345.144,165.639 345.197 C 166.272 345.211,166.642 345.391,166.502 345.616 C 166.348 345.865,167.341 346.010,169.206 346.010 C 172.362 346.010,173.796 346.309,173.000 346.801 C 172.745 346.959,173.923 347.100,175.619 347.114 C 177.427 347.130,178.760 347.314,178.842 347.560 C 178.931 347.829,180.829 347.980,184.100 347.980 C 187.980 347.980,189.353 348.115,189.775 348.536 C 190.540 349.302,210.089 349.242,210.345 348.473 C 210.464 348.114,211.831 347.980,215.369 347.980 C 218.120 347.980,220.287 347.816,220.361 347.602 C 220.433 347.394,221.967 347.193,223.768 347.156 C 225.802 347.113,227.233 346.898,227.543 346.588 C 227.820 346.311,229.259 346.032,230.770 345.962 C 232.270 345.892,233.601 345.690,233.728 345.512 C 233.855 345.334,235.000 345.129,236.273 345.058 C 237.546 344.986,238.654 344.728,238.735 344.484 C 238.818 344.234,239.734 344.039,240.821 344.039 C 242.281 344.039,242.759 343.894,242.759 343.448 C 242.759 343.021,243.196 342.857,244.335 342.857 C 245.202 342.857,245.911 342.680,245.911 342.463 C 245.911 342.246,246.701 342.069,247.665 342.069 C 248.731 342.069,249.543 341.858,249.734 341.531 C 249.907 341.235,250.581 340.891,251.232 340.767 C 253.933 340.250,254.795 339.956,255.093 339.450 C 255.267 339.156,256.021 338.916,256.768 338.916 C 257.653 338.916,258.128 338.729,258.128 338.380 C 258.128 338.030,258.449 337.905,259.051 338.020 C 259.577 338.120,260.243 337.927,260.599 337.571 C 260.943 337.227,261.468 336.946,261.765 336.946 C 262.062 336.946,262.489 336.763,262.713 336.539 C 263.208 336.043,263.227 336.229,263.225 341.660 C 263.225 344.244,263.062 345.883,262.789 346.052 C 262.549 346.200,262.268 347.626,262.165 349.220 C 262.061 350.814,261.843 352.296,261.680 352.512 C 261.517 352.729,261.350 354.234,261.309 355.857 C 261.260 357.781,261.036 359.026,260.666 359.435 C 260.283 359.858,260.099 360.981,260.099 362.888 C 260.099 364.443,259.951 365.714,259.770 365.714 C 259.589 365.714,259.429 365.936,259.414 366.207 C 259.212 369.783,258.728 373.666,258.463 373.830 C 258.279 373.944,258.128 375.602,258.128 377.515 C 258.128 379.817,257.931 381.374,257.545 382.118 C 256.587 383.964,256.742 392.600,257.750 393.512 C 258.625 394.304,261.958 393.868,261.773 392.985 C 261.717 392.716,262.105 392.512,262.672 392.512 C 263.221 392.512,263.772 392.246,263.897 391.921 C 264.022 391.596,264.295 391.330,264.504 391.330 C 265.015 391.330,266.010 390.307,266.010 389.782 C 266.010 389.550,266.359 389.360,266.785 389.360 C 267.211 389.360,268.231 388.728,269.051 387.955 C 271.584 385.569,271.776 385.419,272.280 385.419 C 272.881 385.419,275.074 383.277,275.074 382.690 C 275.074 382.457,275.449 382.266,275.908 382.266 C 276.367 382.266,277.416 381.572,278.240 380.723 C 279.064 379.874,279.841 379.283,279.967 379.409 C 280.094 379.535,280.197 379.385,280.197 379.075 C 280.197 378.765,280.906 378.204,281.773 377.828 C 282.640 377.453,283.350 376.967,283.350 376.750 C 283.350 376.533,283.710 376.355,284.150 376.355 C 284.591 376.355,285.049 376.100,285.168 375.788 C 285.288 375.477,285.614 375.310,285.893 375.417 C 286.172 375.524,286.677 375.336,287.015 374.998 C 287.352 374.660,287.996 374.384,288.445 374.384 C 288.908 374.384,289.261 374.128,289.261 373.793 C 289.261 373.452,289.617 373.202,290.103 373.202 C 290.565 373.202,291.350 372.764,291.847 372.228 C 292.447 371.581,292.815 371.415,292.945 371.735 C 293.095 372.107,293.147 372.104,293.171 371.724 C 293.188 371.453,293.468 371.232,293.793 371.232 C 294.118 371.232,294.384 371.054,294.384 370.837 C 294.384 370.621,294.623 370.443,294.914 370.443 C 295.206 370.443,295.762 370.093,296.149 369.664 C 296.537 369.236,297.008 368.981,297.196 369.097 C 297.383 369.213,297.537 369.123,297.537 368.898 C 297.537 368.672,297.979 368.377,298.519 368.241 C 299.060 368.106,299.404 367.836,299.284 367.643 C 299.165 367.449,299.343 367.291,299.681 367.291 C 300.019 367.291,300.296 367.025,300.296 366.700 C 300.296 366.374,300.624 366.108,301.026 366.108 C 301.428 366.108,302.235 365.665,302.820 365.123 C 303.405 364.581,304.096 364.132,304.355 364.125 C 304.999 364.108,306.248 363.128,305.974 362.854 C 305.853 362.733,306.121 362.517,306.571 362.374 C 307.021 362.231,307.389 361.968,307.389 361.790 C 307.389 361.611,307.833 361.353,308.374 361.217 C 308.916 361.081,309.360 360.713,309.360 360.399 C 309.360 360.028,309.590 359.916,310.015 360.079 C 310.473 360.255,310.580 360.183,310.370 359.843 C 310.177 359.531,310.356 359.281,310.869 359.146 C 311.309 359.031,311.765 358.689,311.882 358.385 C 311.998 358.081,312.365 357.833,312.697 357.833 C 313.029 357.833,313.300 357.655,313.300 357.438 C 313.300 357.222,313.469 357.044,313.676 357.044 C 313.882 357.044,314.654 356.424,315.390 355.665 C 316.127 354.906,316.934 354.286,317.183 354.286 C 317.432 354.286,317.635 354.020,317.635 353.695 C 317.635 353.369,317.901 353.103,318.227 353.103 C 318.552 353.103,318.818 352.938,318.818 352.736 C 318.818 352.534,319.172 352.256,319.606 352.118 C 320.039 351.981,320.394 351.604,320.394 351.280 C 320.394 350.957,320.544 350.785,320.726 350.898 C 320.909 351.011,321.663 350.404,322.401 349.551 C 323.140 348.697,323.976 347.994,324.260 347.989 C 324.543 347.984,324.677 347.822,324.558 347.628 C 324.438 347.433,324.616 347.169,324.953 347.039 C 325.291 346.910,325.457 346.625,325.322 346.407 C 325.187 346.188,325.442 346.010,325.888 346.010 C 326.334 346.010,326.700 345.754,326.700 345.441 C 326.700 345.128,327.022 344.641,327.415 344.357 C 327.809 344.074,328.251 343.521,328.398 343.128 C 328.544 342.735,328.843 342.523,329.061 342.658 C 329.280 342.793,329.480 342.716,329.507 342.486 C 329.534 342.257,329.579 341.923,329.606 341.745 C 329.682 341.243,330.929 340.099,331.400 340.099 C 331.633 340.099,331.823 339.833,331.823 339.507 C 331.823 339.182,332.000 338.916,332.217 338.916 C 332.433 338.916,332.611 338.650,332.611 338.325 C 332.611 338.000,332.857 337.734,333.157 337.734 C 333.457 337.734,333.998 337.113,334.358 336.355 C 334.718 335.596,335.181 334.975,335.388 334.975 C 335.595 334.975,335.764 334.709,335.764 334.384 C 335.764 334.059,336.040 333.793,336.378 333.793 C 336.716 333.793,336.882 333.615,336.747 333.396 C 336.612 333.178,336.779 332.893,337.118 332.763 C 337.457 332.633,337.734 332.271,337.734 331.959 C 337.734 331.646,338.177 330.980,338.719 330.478 C 339.261 329.976,339.704 329.205,339.704 328.765 C 339.704 328.326,339.970 327.864,340.296 327.739 C 340.621 327.614,340.887 327.230,340.887 326.886 C 340.887 326.541,341.045 326.357,341.239 326.477 C 341.691 326.756,342.155 325.581,341.812 325.027 C 341.670 324.796,341.730 324.716,341.945 324.850 C 342.415 325.140,344.039 323.055,344.039 322.160 C 344.039 321.813,344.217 321.639,344.433 321.773 C 344.650 321.907,344.828 321.671,344.828 321.248 C 344.828 320.825,345.094 320.376,345.419 320.252 C 345.744 320.127,346.010 319.753,346.010 319.421 C 346.010 319.089,346.187 318.818,346.404 318.818 C 346.621 318.818,346.798 318.393,346.798 317.875 C 346.798 317.356,347.064 316.830,347.389 316.705 C 347.714 316.580,347.980 316.118,347.980 315.677 C 347.980 315.237,348.113 314.875,348.276 314.873 C 348.438 314.871,349.004 313.895,349.533 312.705 C 350.063 311.515,350.633 310.542,350.802 310.542 C 350.970 310.542,351.017 310.304,350.906 310.014 C 350.794 309.723,350.977 309.258,351.312 308.980 C 351.647 308.702,351.921 308.053,351.921 307.538 C 351.921 306.968,352.153 306.601,352.512 306.601 C 352.880 306.601,353.103 306.229,353.103 305.616 C 353.103 305.074,353.243 304.631,353.414 304.631 C 353.584 304.631,353.753 304.243,353.789 303.770 C 353.824 303.297,354.128 302.756,354.464 302.568 C 354.834 302.361,355.074 301.683,355.074 300.844 C 355.074 300.022,355.234 299.560,355.468 299.704 C 355.698 299.847,355.862 299.446,355.862 298.742 C 355.862 297.913,356.054 297.537,356.476 297.537 C 356.814 297.537,356.977 297.353,356.838 297.128 C 356.699 296.904,356.955 296.011,357.406 295.146 C 357.857 294.280,358.227 293.233,358.227 292.819 C 358.227 292.405,358.404 291.957,358.621 291.823 C 358.837 291.689,359.015 291.079,359.015 290.468 C 359.015 289.857,359.241 289.170,359.518 288.940 C 359.795 288.710,360.062 288.031,360.111 287.431 C 360.161 286.831,360.378 286.164,360.593 285.948 C 360.809 285.733,360.985 284.877,360.985 284.047 C 360.985 283.068,361.193 282.457,361.576 282.310 C 361.954 282.165,362.167 281.558,362.167 280.628 C 362.167 279.827,362.335 279.004,362.539 278.798 C 362.743 278.592,362.952 277.503,363.002 276.378 C 363.056 275.181,363.270 274.363,363.518 274.407 C 363.753 274.449,363.997 273.699,364.067 272.717 C 364.136 271.746,364.375 270.731,364.599 270.461 C 364.823 270.191,365.069 269.052,365.145 267.929 C 365.222 266.807,365.470 265.703,365.696 265.476 C 365.923 265.250,366.108 264.210,366.108 263.167 C 366.108 262.124,366.330 260.912,366.601 260.475 C 367.007 259.820,366.990 259.614,366.502 259.304 C 365.992 258.980,366.001 258.928,366.569 258.922 C 367.109 258.917,367.229 258.488,367.238 256.518 C 367.245 255.199,367.418 253.913,367.624 253.661 C 367.830 253.409,368.017 251.824,368.040 250.140 C 368.063 248.456,368.303 246.704,368.573 246.246 C 368.950 245.608,368.955 245.375,368.594 245.243 C 368.335 245.149,368.226 244.803,368.353 244.474 C 368.520 244.038,368.662 244.003,368.872 244.344 C 369.032 244.602,369.184 242.566,369.211 239.821 C 369.237 237.075,369.435 234.500,369.650 234.099 C 369.886 233.657,370.038 228.039,370.034 219.837 C 370.023 196.847,369.897 199.409,371.034 199.409 C 371.576 199.409,372.020 199.232,372.020 199.015 C 372.020 198.798,372.710 198.621,373.554 198.621 C 374.491 198.621,375.169 198.410,375.296 198.079 C 375.410 197.782,376.138 197.419,376.914 197.273 C 377.690 197.128,378.325 196.856,378.325 196.669 C 378.325 196.483,378.678 196.422,379.109 196.535 C 379.605 196.665,379.981 196.507,380.136 196.104 C 380.292 195.696,380.848 195.468,381.684 195.468 C 382.402 195.468,383.048 195.335,383.120 195.172 C 383.192 195.010,384.094 194.437,385.123 193.900 C 386.153 193.363,386.995 192.786,386.995 192.619 C 386.995 192.452,387.261 192.315,387.586 192.315 C 387.911 192.315,388.177 192.138,388.177 191.921 C 388.177 191.704,388.540 191.527,388.984 191.527 C 389.428 191.527,390.202 191.084,390.704 190.542 C 391.207 190.000,391.913 189.557,392.274 189.557 C 392.636 189.557,393.033 189.291,393.158 188.966 C 393.283 188.640,393.593 188.374,393.847 188.374 C 394.101 188.374,394.558 188.029,394.862 187.607 C 395.166 187.185,395.536 186.915,395.685 187.007 C 396.276 187.373,400.000 183.300,400.000 182.288 C 400.000 180.838,397.315 180.805,396.236 182.242 C 395.838 182.771,395.104 183.307,394.604 183.432 C 394.104 183.558,393.695 183.834,393.695 184.047 C 393.695 184.260,393.429 184.433,393.103 184.433 C 392.778 184.433,392.512 184.700,392.512 185.025 C 392.512 185.392,392.140 185.616,391.527 185.616 C 390.985 185.616,390.542 185.793,390.542 186.010 C 390.542 186.227,390.276 186.404,389.951 186.404 C 389.626 186.404,389.360 186.670,389.360 186.995 C 389.360 187.330,389.006 187.586,388.543 187.586 C 388.094 187.586,387.459 187.854,387.132 188.181 C 386.805 188.508,386.373 188.674,386.172 188.550 C 385.972 188.426,385.701 188.602,385.571 188.941 C 385.441 189.279,384.900 189.557,384.368 189.557 C 383.824 189.557,383.508 189.729,383.645 189.951 C 383.852 190.286,383.101 190.522,382.205 190.404 C 382.064 190.385,381.731 190.630,381.467 190.949 C 381.203 191.267,380.535 191.527,379.983 191.527 C 379.430 191.527,378.698 191.762,378.356 192.048 C 377.762 192.546,375.476 193.328,373.793 193.609 C 373.360 193.682,373.038 193.919,373.078 194.135 C 373.119 194.352,372.454 194.570,371.600 194.620 L 370.049 194.712 370.049 186.624 L 370.049 178.537 371.034 178.290 C 371.576 178.154,372.020 177.885,372.020 177.691 C 372.020 177.498,372.267 177.340,372.569 177.340 C 372.871 177.340,373.220 177.074,373.344 176.749 C 373.469 176.424,373.866 176.158,374.227 176.158 C 374.587 176.158,375.468 175.537,376.183 174.778 C 376.899 174.020,377.673 173.399,377.905 173.399 C 378.136 173.399,378.325 173.133,378.325 172.808 C 378.325 172.483,378.591 172.217,378.916 172.217 C 379.581 172.217,381.084 170.851,381.084 170.246 C 381.084 170.030,381.242 169.897,381.435 169.951 C 381.935 170.091,383.447 168.276,383.454 167.526 C 383.460 166.976,383.508 166.971,383.842 167.488 C 384.151 167.966,384.226 167.909,384.230 167.192 C 384.234 166.643,384.478 166.305,384.870 166.305 C 385.271 166.305,385.420 166.089,385.276 165.714 C 385.151 165.389,385.221 165.123,385.431 165.123 C 386.024 165.123,387.389 163.615,387.389 162.960 C 387.389 162.204,388.613 160.768,389.036 161.029 C 389.214 161.139,389.360 160.775,389.360 160.220 C 389.360 159.666,389.537 159.212,389.754 159.212 C 389.970 159.212,390.148 158.965,390.148 158.663 C 390.148 158.361,390.414 158.012,390.739 157.887 C 391.064 157.762,391.330 157.386,391.330 157.051 C 391.330 156.716,391.552 156.079,391.823 155.636 C 392.236 154.958,392.206 154.748,391.632 154.321 C 391.256 154.042,391.078 153.670,391.238 153.494 C 391.397 153.319,391.172 153.312,390.739 153.479 C 390.305 153.647,389.640 153.873,389.261 153.982 C 388.802 154.114,388.571 154.575,388.571 155.359 C 388.571 156.245,388.425 156.481,387.980 156.311 C 387.655 156.186,387.389 156.267,387.389 156.492 C 387.389 157.016,385.530 159.556,384.355 160.637 C 383.856 161.096,383.448 161.570,383.448 161.690 C 383.448 161.810,382.563 162.854,381.481 164.009 C 380.399 165.163,379.512 166.341,379.511 166.624 C 379.509 166.908,379.330 167.031,379.113 166.897 C 378.897 166.763,378.719 166.841,378.719 167.070 C 378.719 167.300,378.453 167.488,378.128 167.488 C 377.803 167.488,377.537 167.665,377.537 167.882 C 377.537 168.099,377.271 168.276,376.946 168.276 C 376.621 168.276,376.355 168.542,376.355 168.867 C 376.355 169.192,376.131 169.458,375.857 169.458 C 375.583 169.458,375.027 169.901,374.620 170.443 C 374.213 170.985,373.550 171.429,373.147 171.429 C 372.744 171.429,372.414 171.606,372.414 171.823 C 372.414 172.039,372.148 172.217,371.823 172.217 C 371.498 172.217,371.232 172.483,371.232 172.808 C 371.232 173.176,370.859 173.399,370.246 173.399 C 369.194 173.399,369.178 173.356,369.199 170.626 C 369.211 169.123,369.093 168.839,368.458 168.839 C 367.446 168.839,366.897 170.527,366.897 173.632 C 366.897 175.728,366.452 177.027,365.917 176.492 C 365.841 176.416,365.593 173.960,365.365 171.034 C 364.829 164.127,363.594 155.006,362.432 149.360 C 361.832 146.445,359.439 138.714,358.694 137.285 C 358.484 136.882,357.703 135.310,356.959 133.793 C 355.217 130.240,353.675 127.484,351.175 123.455 C 350.068 121.671,349.163 120.116,349.163 119.999 C 349.163 119.883,348.706 119.064,348.147 118.179 C 347.216 116.703,347.168 116.421,347.560 114.739 C 347.795 113.731,348.172 111.754,348.398 110.345 C 349.159 105.588,349.240 105.287,349.966 104.507 C 350.365 104.079,350.584 103.622,350.452 103.490 C 350.321 103.359,350.420 103.251,350.673 103.251 C 350.979 103.251,351.133 102.337,351.133 100.516 C 351.133 99.011,351.310 97.671,351.527 97.537 C 351.744 97.403,351.921 95.655,351.921 93.652 C 351.921 91.345,352.095 89.837,352.394 89.537 C 352.762 89.169,352.762 89.064,352.394 89.064 C 352.134 89.064,351.924 88.754,351.927 88.374 C 351.932 87.846,352.011 87.808,352.266 88.210 C 352.532 88.630,352.651 88.603,352.852 88.080 C 353.204 87.160,353.168 87.007,352.670 87.315 C 352.355 87.510,352.355 87.362,352.669 86.776 C 353.324 85.551,353.081 44.351,352.414 43.685 C 352.077 43.348,351.921 41.771,351.921 38.713 C 351.921 36.249,351.749 33.912,351.539 33.519 C 351.328 33.126,351.123 31.791,351.083 30.553 C 351.035 29.089,350.824 28.231,350.480 28.099 C 350.162 27.977,349.951 27.282,349.951 26.362 C 349.951 25.518,349.777 24.828,349.564 24.828 C 349.352 24.828,349.068 24.391,348.934 23.856 C 348.800 23.322,348.353 22.778,347.941 22.648 C 347.529 22.517,347.192 22.245,347.192 22.042 C 347.192 21.840,346.827 21.675,346.381 21.675 C 345.934 21.675,345.679 21.498,345.813 21.281 C 345.970 21.026,344.248 20.887,340.933 20.887 C 337.943 20.887,335.709 21.051,335.567 21.281 C 335.433 21.498,334.823 21.675,334.212 21.675 C 333.601 21.675,332.881 21.941,332.611 22.266 C 332.341 22.591,331.720 22.857,331.231 22.857 C 330.168 22.857,327.642 23.865,327.294 24.428 C 327.158 24.648,326.675 24.828,326.221 24.828 C 325.766 24.828,324.813 25.271,324.103 25.813 C 323.392 26.355,322.528 26.798,322.181 26.798 C 321.835 26.798,321.450 27.064,321.325 27.389 C 321.200 27.714,320.878 27.980,320.610 27.980 C 319.852 27.980,317.635 29.177,317.635 29.586 C 317.635 29.786,317.211 29.951,316.692 29.951 C 316.174 29.951,315.647 30.217,315.523 30.542 C 315.398 30.867,315.024 31.133,314.692 31.133 C 314.360 31.133,314.089 31.310,314.089 31.527 C 314.089 31.744,313.753 31.921,313.343 31.921 C 312.932 31.921,312.490 32.198,312.360 32.537 C 312.230 32.876,311.968 33.057,311.778 32.940 C 311.587 32.822,311.027 33.077,310.532 33.506 C 310.038 33.935,309.516 34.286,309.374 34.286 C 309.231 34.286,308.761 34.596,308.329 34.975 C 307.260 35.913,306.148 36.627,305.320 36.905 C 304.941 37.032,304.631 37.274,304.631 37.442 C 304.631 37.610,304.187 37.858,303.645 37.994 C 303.103 38.130,302.660 38.416,302.660 38.628 C 302.660 38.841,302.483 39.015,302.266 39.015 C 301.665 39.015,300.326 40.486,300.624 40.819 C 300.768 40.980,300.677 40.992,300.421 40.845 C 300.165 40.698,299.843 40.761,299.704 40.985 C 299.566 41.209,299.288 41.290,299.086 41.165 C 298.884 41.041,298.719 41.226,298.719 41.576 C 298.719 41.927,298.541 42.104,298.322 41.969 C 298.104 41.834,297.819 42.001,297.689 42.340 C 297.559 42.678,297.111 42.956,296.694 42.956 C 296.277 42.956,295.834 43.222,295.709 43.547 C 295.584 43.872,295.277 44.138,295.027 44.138 C 294.776 44.138,294.238 44.581,293.831 45.123 C 293.425 45.665,292.826 46.108,292.502 46.108 C 292.178 46.108,291.502 46.552,291.000 47.094 C 290.498 47.635,289.917 48.079,289.709 48.079 C 289.501 48.079,288.945 48.877,288.473 49.852 C 288.001 50.828,287.495 51.626,287.350 51.626 C 287.205 51.626,286.597 52.079,286.000 52.632 C 281.261 57.027,278.170 58.407,275.580 57.285 C 274.760 56.930,273.734 56.508,273.300 56.347 C 272.867 56.186,271.714 55.746,270.739 55.369 C 269.764 54.992,268.611 54.549,268.177 54.384 C 267.744 54.219,266.680 53.810,265.813 53.476 C 263.741 52.675,259.266 51.127,256.552 50.271 C 255.360 49.896,254.030 49.446,253.596 49.271 C 252.855 48.973,249.397 48.034,246.305 47.291 C 245.547 47.108,243.862 46.686,242.562 46.352 C 240.235 45.754,238.570 45.398,233.892 44.497 C 231.546 44.046,230.088 43.834,223.251 42.951 C 218.873 42.385,219.155 42.734,217.978 36.453 C 217.815 35.586,217.450 34.448,217.167 33.925 C 216.863 33.364,216.665 31.776,216.685 30.064 C 216.711 27.853,216.581 27.103,216.143 26.935 C 215.826 26.813,215.567 26.304,215.567 25.803 C 215.567 25.303,215.394 24.834,215.184 24.762 C 214.973 24.690,214.737 24.276,214.658 23.842 C 214.579 23.409,214.322 22.611,214.087 22.069 C 213.852 21.527,213.558 20.762,213.434 20.369 C 213.309 19.976,213.029 19.765,212.811 19.900 C 212.592 20.035,212.414 19.896,212.414 19.591 C 212.414 18.669,211.195 16.528,210.807 16.768 C 210.607 16.891,210.443 16.549,210.443 16.007 C 210.443 15.465,210.239 14.895,209.988 14.741 C 209.687 14.555,209.641 14.634,209.852 14.975 C 210.059 15.309,210.017 15.396,209.733 15.221 C 209.493 15.072,209.395 14.690,209.518 14.372 C 209.656 14.011,209.501 13.793,209.106 13.793 C 208.758 13.793,208.473 13.519,208.473 13.184 C 208.473 12.849,208.030 12.132,207.488 11.590 C 206.946 11.048,206.502 10.524,206.502 10.424 C 206.502 9.865,201.272 5.111,200.422 4.898 C 199.865 4.758,199.407 4.441,199.404 4.194 C 199.400 3.799,197.146 2.059,196.059 1.611 C 195.842 1.522,195.463 1.174,195.216 0.839 C 194.766 0.228,181.005 -0.280,179.212 0.249 M46.797 73.596 C 46.727 75.926,46.670 74.020,46.670 69.360 C 46.670 64.700,46.727 62.793,46.797 65.123 C 46.866 67.453,46.866 71.266,46.797 73.596 M124.999 172.268 C 125.364 172.456,126.138 172.611,126.719 172.611 C 127.751 172.611,131.140 173.567,132.507 174.243 C 132.883 174.429,133.527 174.581,133.937 174.581 C 134.346 174.581,134.903 174.847,135.172 175.172 C 135.442 175.498,135.996 175.764,136.403 175.764 C 136.810 175.764,137.145 175.897,137.147 176.059 C 137.149 176.222,137.947 176.705,138.920 177.133 C 139.893 177.561,140.690 178.048,140.690 178.216 C 140.690 178.385,140.880 178.522,141.113 178.522 C 143.078 178.522,153.392 188.170,154.012 190.588 C 154.927 194.158,154.813 196.453,153.661 197.708 C 152.084 199.424,150.665 202.157,149.409 205.894 C 148.778 207.771,148.154 209.415,148.023 209.547 C 147.891 209.679,147.783 210.203,147.783 210.712 C 147.783 211.221,147.528 212.655,147.217 213.898 C 145.858 219.321,145.222 230.881,145.824 239.212 C 146.660 250.776,147.403 255.505,149.203 260.703 C 149.506 261.577,149.754 262.599,149.754 262.974 C 149.754 263.349,149.920 263.964,150.122 264.340 C 150.872 265.732,151.724 267.718,151.724 268.076 C 151.724 268.916,155.106 273.418,156.478 274.403 C 161.673 278.138,166.730 269.728,168.754 253.990 C 169.432 248.718,169.410 223.039,168.724 219.719 C 168.457 218.427,168.291 216.654,168.356 215.778 L 168.473 214.187 169.458 215.233 C 170.000 215.808,170.788 216.960,171.209 217.794 C 171.631 218.628,172.783 220.552,173.771 222.069 C 174.759 223.586,175.897 225.537,176.300 226.404 C 177.535 229.059,177.337 228.685,180.993 235.271 C 183.367 239.548,188.597 243.809,193.892 245.780 C 195.553 246.398,205.149 246.507,205.517 245.911 C 205.651 245.695,206.091 245.517,206.494 245.517 C 207.167 245.517,209.587 244.430,210.049 243.920 C 210.158 243.800,210.869 243.325,211.629 242.863 C 213.067 241.990,217.587 237.486,218.061 236.453 C 218.210 236.128,218.656 235.330,219.052 234.680 C 219.843 233.381,222.223 229.114,222.679 228.177 C 222.837 227.852,223.295 226.877,223.697 226.010 C 224.098 225.143,224.996 223.624,225.691 222.634 C 226.387 221.645,227.920 218.984,229.099 216.723 C 232.787 209.647,233.529 208.473,234.306 208.473 C 234.814 208.473,234.780 210.102,234.228 212.217 C 233.840 213.703,232.860 220.098,232.687 222.266 C 232.592 223.458,232.316 226.828,232.074 229.754 C 231.443 237.373,232.265 252.279,233.709 259.409 C 233.918 260.438,234.240 262.034,234.426 262.956 C 235.572 268.648,239.117 274.640,241.726 275.294 C 244.312 275.943,247.719 272.367,250.574 266.010 C 251.488 263.976,253.671 256.415,254.045 253.990 C 254.146 253.340,254.519 251.034,254.875 248.867 C 255.850 242.935,255.841 221.052,254.862 216.355 C 253.410 209.389,252.578 206.455,251.198 203.438 C 250.674 202.294,250.246 201.246,250.246 201.109 C 250.246 199.359,245.638 195.468,243.566 195.468 C 242.893 195.468,242.344 195.252,242.318 194.975 C 242.232 194.073,242.421 193.385,242.888 192.899 C 243.142 192.635,244.143 191.464,245.113 190.298 C 248.132 186.666,255.766 179.704,256.729 179.704 C 256.866 179.704,257.369 179.341,257.847 178.896 C 258.324 178.451,259.514 177.697,260.490 177.221 C 261.467 176.745,262.325 176.222,262.397 176.059 C 262.470 175.897,262.835 175.764,263.209 175.764 C 263.583 175.764,264.233 175.503,264.654 175.185 C 265.074 174.867,265.807 174.601,266.282 174.594 C 266.757 174.587,267.255 174.404,267.389 174.187 C 267.523 173.970,268.021 173.792,268.496 173.791 C 268.971 173.789,269.868 173.523,270.488 173.200 C 271.109 172.876,272.296 172.611,273.125 172.611 C 273.955 172.611,274.726 172.461,274.840 172.277 C 275.373 171.414,285.807 171.513,289.852 172.419 C 296.298 173.864,304.096 180.873,307.603 188.374 C 307.958 189.133,308.498 190.224,308.804 190.800 C 309.109 191.375,309.360 192.207,309.360 192.648 C 309.360 193.090,309.537 193.561,309.754 193.695 C 309.970 193.829,310.148 194.383,310.148 194.926 C 310.148 195.469,310.343 196.280,310.583 196.727 C 311.012 197.528,311.404 199.520,312.120 204.532 C 312.321 205.941,312.677 207.803,312.911 208.670 C 313.570 211.110,313.166 230.192,312.353 235.074 C 310.999 243.201,310.446 245.734,309.707 247.187 C 309.516 247.563,309.354 248.361,309.347 248.960 C 309.340 249.559,309.074 250.394,308.756 250.814 C 308.438 251.235,308.177 251.978,308.177 252.466 C 308.177 252.954,308.000 253.462,307.783 253.596 C 307.567 253.730,307.389 254.239,307.389 254.726 C 307.389 255.214,307.129 255.957,306.811 256.378 C 306.492 256.799,306.226 257.448,306.219 257.822 C 306.199 258.909,300.382 271.161,299.525 271.921 C 299.403 272.030,298.954 272.783,298.527 273.596 C 298.101 274.409,297.615 275.074,297.447 275.074 C 297.280 275.074,297.143 275.253,297.143 275.471 C 297.143 275.873,295.955 277.596,293.793 280.328 C 292.595 281.843,290.641 282.945,289.114 282.968 C 288.653 282.975,287.932 283.241,287.511 283.559 C 287.090 283.878,286.170 284.138,285.465 284.138 C 284.761 284.138,284.075 284.315,283.941 284.532 C 283.807 284.749,283.397 284.927,283.031 284.929 C 282.664 284.930,281.857 285.196,281.236 285.520 C 280.615 285.843,279.881 286.108,279.606 286.108 C 279.330 286.108,278.597 286.373,277.976 286.697 C 277.355 287.021,276.459 287.287,275.984 287.288 C 275.509 287.290,275.011 287.468,274.877 287.685 C 274.743 287.901,274.156 288.085,273.573 288.093 C 272.990 288.100,272.069 288.360,271.527 288.670 C 270.985 288.980,269.906 289.239,269.130 289.247 C 268.353 289.255,267.585 289.394,267.424 289.557 C 266.424 290.562,253.501 291.517,249.816 290.858 C 248.365 290.599,245.519 290.230,243.491 290.039 C 238.257 289.546,235.147 289.039,234.184 288.524 C 233.727 288.279,232.642 288.079,231.773 288.079 C 230.905 288.079,230.098 287.922,229.979 287.731 C 229.861 287.539,228.789 287.261,227.598 287.112 C 226.406 286.963,225.329 286.676,225.205 286.475 C 225.080 286.273,224.315 286.108,223.504 286.108 C 222.693 286.108,221.861 285.945,221.655 285.745 C 221.273 285.373,218.504 284.721,214.975 284.171 C 213.892 284.002,212.506 283.660,211.896 283.410 C 211.285 283.160,210.276 282.956,209.653 282.956 C 209.029 282.956,208.426 282.805,208.313 282.621 C 208.099 282.275,202.388 281.647,199.606 281.663 C 196.787 281.679,187.600 283.051,186.736 283.585 C 186.461 283.755,185.520 284.028,184.645 284.190 C 181.161 284.839,179.076 285.333,178.325 285.687 C 177.892 285.892,176.916 286.150,176.158 286.261 C 173.893 286.591,170.321 287.479,170.010 287.789 C 169.851 287.949,169.053 288.079,168.236 288.079 C 167.419 288.079,166.252 288.284,165.641 288.536 C 164.453 289.025,162.018 289.408,156.059 290.043 C 154.000 290.262,151.129 290.620,149.678 290.837 C 146.297 291.343,141.382 291.327,139.113 290.802 C 138.138 290.577,136.276 290.232,134.975 290.036 C 130.010 289.288,128.643 289.004,127.809 288.549 C 127.336 288.290,126.504 288.079,125.960 288.079 C 125.417 288.079,124.863 287.901,124.729 287.685 C 124.595 287.468,124.186 287.290,123.819 287.288 C 123.453 287.287,122.645 287.021,122.024 286.697 C 121.403 286.373,120.516 286.103,120.053 286.096 C 119.591 286.089,118.868 285.823,118.447 285.505 C 118.026 285.186,117.283 284.926,116.795 284.926 C 116.308 284.926,115.799 284.749,115.665 284.532 C 115.531 284.315,114.944 284.132,114.361 284.124 C 113.778 284.116,112.857 283.857,112.315 283.547 C 111.773 283.237,110.840 282.977,110.241 282.970 C 107.600 282.936,102.965 277.471,98.864 269.557 C 98.134 268.148,97.404 266.936,97.241 266.864 C 97.079 266.791,96.946 266.528,96.946 266.278 C 96.946 265.869,95.849 263.369,94.349 260.362 C 94.043 259.749,93.793 258.917,93.793 258.513 C 93.793 258.110,93.629 257.679,93.429 257.556 C 93.229 257.432,92.941 256.762,92.788 256.068 C 92.635 255.373,92.380 254.532,92.219 254.200 C 91.731 253.186,90.965 250.893,90.768 249.852 C 90.665 249.310,90.441 248.512,90.269 248.079 C 89.725 246.704,88.998 243.799,88.790 242.167 C 88.680 241.300,88.430 240.423,88.235 240.217 C 88.041 240.011,87.880 239.213,87.877 238.443 C 87.875 237.674,87.605 236.069,87.278 234.877 C 86.367 231.554,86.337 208.651,87.240 205.996 C 87.593 204.959,87.882 203.443,87.882 202.627 C 87.882 201.811,88.041 200.974,88.235 200.768 C 88.430 200.563,88.680 199.685,88.790 198.818 C 88.991 197.244,89.695 194.397,90.252 192.906 C 91.349 189.970,91.982 188.431,92.488 187.473 C 92.806 186.868,93.290 185.945,93.561 185.422 C 95.599 181.494,101.331 176.303,106.162 174.010 C 111.023 171.703,121.951 170.692,124.999 172.268 " stroke="none" fill="#f49bf3" fill-rule="evenodd"></path><path id="SvgjsPath1003" d="M111.249 172.832 C 102.614 174.725,94.839 182.246,91.309 192.118 C 90.427 194.584,89.796 196.914,88.643 201.970 C 85.441 216.000,87.296 239.260,92.807 254.187 C 98.298 269.062,105.591 281.042,109.835 282.158 C 112.786 282.935,116.024 283.948,121.576 285.831 C 135.027 290.394,140.224 290.945,156.059 289.489 C 158.605 289.255,165.639 287.946,171.034 286.703 C 176.166 285.521,176.683 285.397,179.704 284.626 C 181.330 284.211,184.079 283.560,185.813 283.179 C 187.547 282.798,189.586 282.329,190.345 282.137 C 193.303 281.390,199.931 280.577,201.309 280.794 C 202.106 280.919,203.911 281.200,205.320 281.418 C 207.982 281.830,210.342 282.322,212.962 283.012 C 213.806 283.233,215.313 283.559,216.312 283.736 C 217.311 283.912,219.547 284.418,221.281 284.860 C 226.626 286.223,231.453 287.386,233.103 287.709 C 239.368 288.935,241.952 289.320,246.108 289.648 C 248.709 289.854,251.648 290.119,252.639 290.237 C 258.215 290.902,268.344 289.141,278.621 285.718 C 281.764 284.671,286.108 283.253,288.276 282.567 C 292.726 281.159,293.103 280.805,297.498 273.892 C 304.076 263.548,307.940 253.444,311.290 237.833 C 313.568 227.219,313.133 210.278,310.272 198.227 C 309.388 194.498,308.891 193.023,307.088 188.768 C 305.808 185.748,302.165 180.832,299.768 178.892 C 298.433 177.810,297.102 176.731,296.812 176.493 C 291.113 171.824,277.574 170.917,268.177 174.574 C 267.744 174.743,266.591 175.186,265.616 175.560 C 256.302 179.124,239.165 194.680,244.552 194.680 C 247.520 194.680,250.536 198.536,253.334 205.911 C 253.923 207.464,255.270 213.237,256.036 217.494 C 256.888 222.231,257.068 241.414,256.303 245.991 C 256.002 247.789,255.563 250.414,255.328 251.823 C 251.534 274.510,241.561 283.573,235.689 269.671 C 232.237 261.500,231.133 253.639,231.133 237.241 C 231.133 224.506,231.350 221.482,232.757 214.621 C 233.660 210.215,232.972 210.655,230.088 216.329 C 229.159 218.157,227.701 220.729,226.850 222.043 C 225.998 223.358,224.409 226.207,223.319 228.374 C 216.016 242.897,207.472 248.960,196.919 247.108 C 187.926 245.529,182.526 240.567,176.533 228.374 C 175.361 225.990,173.733 223.116,172.915 221.987 C 172.098 220.859,171.425 219.795,171.420 219.623 C 171.405 219.086,169.918 217.340,169.679 217.579 C 169.554 217.703,169.737 220.184,170.085 223.090 C 172.687 244.838,168.381 271.595,161.640 275.567 C 145.547 285.048,137.733 215.676,152.803 197.117 L 154.185 195.415 153.662 192.473 C 153.088 189.242,150.801 186.428,145.431 182.345 C 144.234 181.434,142.933 180.401,142.541 180.048 C 141.457 179.074,133.636 175.169,131.626 174.599 C 130.650 174.322,129.320 173.927,128.670 173.722 C 124.131 172.291,115.687 171.859,111.249 172.832 M29.425 187.061 C 29.037 187.449,29.106 188.768,29.515 188.768 C 29.709 188.768,29.842 188.325,29.811 187.784 C 29.779 187.242,29.739 186.798,29.721 186.798 C 29.703 186.798,29.570 186.916,29.425 187.061 M28.931 191.496 C 28.957 193.390,29.114 194.066,29.557 194.186 C 29.971 194.298,30.007 194.245,29.677 194.011 C 29.419 193.826,29.137 192.616,29.052 191.321 L 28.896 188.966 28.931 191.496 " stroke="none" fill="#fbfafb" fill-rule="evenodd"></path><path id="SvgjsPath1002" d="M217.155 31.429 C 217.162 32.241,217.428 33.251,217.747 33.671 C 218.065 34.092,218.325 35.013,218.325 35.717 C 218.325 36.421,218.479 37.093,218.667 37.209 C 218.855 37.325,219.101 38.241,219.214 39.243 C 219.506 41.832,219.961 42.124,224.164 42.423 C 226.170 42.565,227.904 42.832,228.017 43.016 C 228.131 43.199,229.289 43.350,230.591 43.350 C 231.893 43.350,233.333 43.550,233.790 43.795 C 234.248 44.040,235.611 44.385,236.818 44.563 C 240.650 45.125,243.076 45.645,243.889 46.080 C 244.322 46.313,245.135 46.502,245.694 46.502 C 246.253 46.502,247.018 46.659,247.395 46.850 C 248.065 47.191,250.656 47.925,252.611 48.329 C 253.153 48.441,253.951 48.681,254.384 48.863 C 254.818 49.045,256.148 49.496,257.340 49.865 C 258.532 50.234,260.090 50.781,260.802 51.081 C 261.513 51.381,262.358 51.626,262.679 51.626 C 263.267 51.626,263.555 51.742,265.943 52.938 C 266.665 53.300,267.510 53.596,267.821 53.596 C 268.390 53.596,268.684 53.715,271.066 54.909 C 271.788 55.270,272.633 55.567,272.944 55.567 C 273.254 55.567,273.816 55.735,274.193 55.942 C 276.062 56.966,277.877 57.599,278.322 57.381 C 283.145 55.016,289.639 48.867,287.314 48.867 C 286.893 48.867,286.439 48.690,286.305 48.473 C 286.171 48.256,285.648 48.079,285.142 48.079 C 284.636 48.079,284.120 47.813,283.995 47.488 C 283.863 47.142,283.272 46.897,282.574 46.897 C 281.917 46.897,281.379 46.719,281.379 46.502 C 281.379 46.286,280.955 46.108,280.436 46.108 C 279.918 46.108,279.391 45.842,279.266 45.517 C 279.142 45.192,278.591 44.926,278.042 44.926 C 277.493 44.926,277.044 44.749,277.044 44.532 C 277.044 44.315,276.424 44.138,275.665 44.138 C 274.702 44.138,274.286 43.960,274.286 43.547 C 274.286 43.175,273.910 42.956,273.272 42.956 C 272.715 42.956,271.993 42.690,271.668 42.365 C 271.343 42.039,270.646 41.773,270.120 41.773 C 269.593 41.773,269.163 41.596,269.163 41.379 C 269.163 41.163,268.453 40.985,267.586 40.985 C 266.448 40.985,266.010 40.821,266.010 40.394 C 266.010 39.981,265.594 39.803,264.631 39.803 C 263.872 39.803,263.251 39.626,263.251 39.409 C 263.251 39.192,262.561 39.015,261.717 39.015 C 260.717 39.015,260.104 38.809,259.956 38.424 C 259.814 38.053,259.211 37.833,258.337 37.833 C 257.572 37.833,256.946 37.655,256.946 37.438 C 256.946 37.222,256.059 37.044,254.975 37.044 C 253.487 37.044,253.005 36.900,253.005 36.453 C 253.005 36.026,252.567 35.862,251.429 35.862 C 250.562 35.862,249.852 35.696,249.852 35.492 C 249.852 35.289,249.010 35.014,247.980 34.881 C 246.951 34.748,245.800 34.471,245.424 34.266 C 245.048 34.060,243.870 33.892,242.806 33.892 C 241.451 33.892,240.805 33.715,240.646 33.300 C 240.479 32.865,239.791 32.709,238.042 32.709 C 236.720 32.709,235.665 32.534,235.665 32.315 C 235.665 32.096,234.605 31.921,233.272 31.921 C 231.671 31.921,230.684 31.726,230.289 31.330 C 229.862 30.904,228.825 30.739,226.573 30.739 C 224.753 30.739,223.448 30.574,223.448 30.345 C 223.448 30.115,222.135 29.951,220.296 29.951 L 217.143 29.951 217.155 31.429 M169.730 31.311 C 169.315 31.727,168.364 31.921,166.751 31.921 C 165.448 31.921,164.272 32.099,164.138 32.315 C 164.004 32.532,162.841 32.709,161.553 32.709 C 159.735 32.709,159.212 32.841,159.212 33.300 C 159.212 33.765,158.664 33.892,156.650 33.892 C 155.241 33.892,154.089 34.046,154.089 34.234 C 154.089 34.423,153.252 34.672,152.230 34.787 C 151.207 34.902,150.306 35.191,150.226 35.429 C 150.147 35.667,149.400 35.862,148.567 35.862 C 147.733 35.862,146.785 36.128,146.460 36.453 C 146.135 36.778,145.236 37.044,144.462 37.044 C 143.688 37.044,143.054 37.222,143.054 37.438 C 143.054 37.655,142.345 37.833,141.478 37.833 C 140.339 37.833,139.901 37.997,139.901 38.424 C 139.901 38.851,139.464 39.015,138.325 39.015 C 137.458 39.015,136.749 39.192,136.749 39.409 C 136.749 39.626,136.128 39.803,135.369 39.803 C 134.406 39.803,133.990 39.981,133.990 40.394 C 133.990 40.821,133.552 40.985,132.414 40.985 C 131.547 40.985,130.837 41.163,130.837 41.379 C 130.837 41.596,130.407 41.773,129.880 41.773 C 129.354 41.773,128.657 42.039,128.332 42.365 C 128.007 42.690,127.285 42.956,126.728 42.956 C 126.090 42.956,125.714 43.175,125.714 43.547 C 125.714 43.960,125.298 44.138,124.335 44.138 C 123.576 44.138,122.956 44.315,122.956 44.532 C 122.956 44.749,122.507 44.926,121.958 44.926 C 121.409 44.926,120.858 45.192,120.734 45.517 C 120.594 45.882,119.995 46.108,119.170 46.108 C 118.434 46.108,117.833 46.286,117.833 46.502 C 117.833 46.719,117.389 46.897,116.847 46.897 C 116.234 46.897,115.862 47.120,115.862 47.488 C 115.862 47.882,115.468 48.079,114.680 48.079 C 114.030 48.079,113.498 48.256,113.498 48.473 C 113.498 48.690,113.153 48.867,112.733 48.867 C 110.499 48.867,112.292 50.969,118.179 55.254 C 121.818 57.903,121.454 57.857,125.517 56.166 C 126.167 55.895,127.498 55.362,128.473 54.982 C 131.706 53.720,132.207 53.517,133.399 52.986 C 134.049 52.695,135.468 52.178,136.552 51.836 C 137.635 51.494,138.877 51.058,139.310 50.868 C 139.744 50.678,141.163 50.214,142.463 49.837 C 143.764 49.461,145.005 49.022,145.222 48.862 C 145.438 48.703,146.148 48.472,146.798 48.350 C 149.078 47.923,152.056 47.090,152.348 46.798 C 152.511 46.635,153.190 46.496,153.859 46.488 C 154.527 46.481,155.517 46.221,156.059 45.911 C 156.601 45.602,157.788 45.342,158.696 45.334 C 159.604 45.326,160.442 45.168,160.557 44.982 C 160.672 44.796,161.841 44.546,163.156 44.427 C 164.471 44.308,165.762 44.037,166.025 43.825 C 166.287 43.613,167.655 43.333,169.064 43.202 C 177.197 42.445,177.042 42.504,176.725 40.282 C 176.579 39.260,176.303 38.255,176.112 38.049 C 175.920 37.843,175.750 37.045,175.733 36.276 C 175.716 35.506,175.391 33.990,175.011 32.906 L 174.320 30.936 172.330 30.818 C 170.935 30.736,170.158 30.883,169.730 31.311 M48.079 105.813 C 48.079 106.355,47.905 106.798,47.692 106.798 C 47.480 106.798,47.194 107.241,47.058 107.783 C 46.922 108.325,46.653 108.768,46.460 108.768 C 46.266 108.768,46.108 109.212,46.108 109.754 C 46.108 110.367,45.885 110.739,45.517 110.739 C 45.149 110.739,44.926 111.111,44.926 111.724 C 44.926 112.266,44.749 112.709,44.532 112.709 C 44.315 112.709,44.138 113.153,44.138 113.695 C 44.138 114.308,43.915 114.680,43.547 114.680 C 43.212 114.680,42.956 115.033,42.956 115.496 C 42.956 115.945,42.690 116.578,42.365 116.904 C 42.039 117.229,41.773 117.826,41.773 118.231 C 41.773 118.637,41.596 119.078,41.379 119.212 C 41.163 119.346,40.985 119.977,40.985 120.614 C 40.985 121.382,40.786 121.773,40.394 121.773 C 40.026 121.773,39.803 122.146,39.803 122.759 C 39.803 123.300,39.626 123.744,39.409 123.744 C 39.192 123.744,39.015 124.453,39.015 125.320 C 39.015 126.459,38.851 126.897,38.424 126.897 C 38.056 126.897,37.833 127.269,37.833 127.882 C 37.833 128.424,37.655 128.867,37.438 128.867 C 37.222 128.867,37.044 129.576,37.044 130.443 C 37.044 131.582,36.880 132.020,36.453 132.020 C 36.035 132.020,35.858 132.452,35.850 133.498 C 35.843 134.310,35.577 135.320,35.258 135.740 C 34.940 136.161,34.680 137.092,34.680 137.809 C 34.680 138.527,34.502 139.113,34.286 139.113 C 34.069 139.113,33.892 139.981,33.892 141.042 C 33.892 142.392,33.714 143.038,33.300 143.197 C 32.865 143.364,32.709 144.051,32.709 145.800 C 32.709 147.122,32.534 148.177,32.315 148.177 C 32.078 148.177,31.921 149.808,31.921 152.282 C 31.921 155.216,31.781 156.434,31.429 156.551 C 31.081 156.667,30.898 158.112,30.805 161.469 L 30.675 166.223 31.905 166.950 C 32.582 167.350,33.246 168.115,33.381 168.652 C 33.785 170.262,34.226 168.548,34.258 165.240 C 34.273 163.679,34.461 161.994,34.674 161.496 C 35.042 160.639,35.654 156.511,36.122 151.724 C 36.239 150.532,36.493 149.363,36.686 149.126 C 36.880 148.889,37.226 147.559,37.455 146.170 C 37.684 144.781,37.975 143.025,38.101 142.266 C 38.226 141.507,38.572 140.537,38.869 140.109 C 39.166 139.682,39.409 138.926,39.409 138.429 C 39.409 137.933,39.565 137.218,39.755 136.842 C 40.551 135.267,41.379 133.141,41.379 132.671 C 41.379 132.394,41.823 131.248,42.365 130.125 C 42.906 129.002,43.350 127.826,43.350 127.513 C 43.350 127.199,43.522 126.836,43.733 126.706 C 43.944 126.576,44.404 125.864,44.755 125.124 C 45.106 124.384,46.530 122.669,47.918 121.314 C 49.307 119.958,50.443 118.642,50.443 118.389 C 50.443 118.136,50.732 117.690,51.084 117.397 C 51.805 116.799,51.653 112.262,50.862 110.785 C 50.632 110.355,50.443 109.296,50.443 108.433 C 50.443 106.482,50.127 105.616,49.416 105.616 C 49.114 105.616,48.867 105.438,48.867 105.222 C 48.867 105.005,48.690 104.828,48.473 104.828 C 48.256 104.828,48.079 105.271,48.079 105.813 M349.796 105.451 C 349.664 105.794,349.557 106.692,349.557 107.447 C 349.557 108.202,349.382 109.146,349.169 109.544 C 348.222 111.314,347.973 116.784,348.788 117.915 C 349.211 118.502,349.557 119.179,349.557 119.419 C 349.557 119.659,350.000 120.437,350.542 121.147 C 351.084 121.858,351.527 122.552,351.527 122.690 C 351.527 122.829,352.263 124.142,353.162 125.609 C 354.062 127.076,355.460 129.532,356.270 131.066 C 357.080 132.601,357.926 134.197,358.150 134.613 C 358.526 135.310,359.963 138.936,361.183 142.266 C 362.558 146.017,363.741 151.816,364.521 158.621 C 364.744 160.571,365.104 162.575,365.321 163.073 C 365.537 163.571,365.717 165.610,365.720 167.605 C 365.724 169.599,365.898 171.498,366.108 171.823 C 366.400 172.274,366.492 172.122,366.496 171.182 C 366.507 169.118,366.966 167.488,367.537 167.488 C 367.840 167.488,368.079 167.088,368.079 166.581 C 368.079 166.083,368.269 165.484,368.502 165.252 C 369.096 164.658,369.136 160.505,368.554 159.923 C 368.235 159.604,368.079 157.863,368.079 154.624 C 368.079 151.833,367.913 149.698,367.685 149.557 C 367.468 149.423,367.291 148.361,367.291 147.197 C 367.291 145.842,367.078 144.868,366.700 144.490 C 366.329 144.120,366.108 143.151,366.108 141.900 C 366.108 140.801,365.954 139.901,365.766 139.901 C 365.577 139.901,365.328 139.065,365.213 138.042 C 365.098 137.020,364.809 136.119,364.571 136.039 C 364.333 135.960,364.138 135.200,364.138 134.351 C 364.138 133.242,363.972 132.808,363.547 132.808 C 363.134 132.808,362.956 132.392,362.956 131.429 C 362.956 130.670,362.778 130.049,362.562 130.049 C 362.345 130.049,362.167 129.423,362.167 128.658 C 362.167 127.784,361.947 127.181,361.576 127.039 C 361.251 126.914,360.985 126.388,360.985 125.869 C 360.985 125.350,360.808 124.926,360.591 124.926 C 360.374 124.926,360.197 124.300,360.197 123.534 C 360.197 122.661,359.977 122.058,359.606 121.916 C 359.281 121.791,359.015 121.265,359.015 120.746 C 359.015 120.227,358.837 119.803,358.621 119.803 C 358.404 119.803,358.227 119.360,358.227 118.818 C 358.227 118.205,358.003 117.833,357.635 117.833 C 357.272 117.833,357.044 117.463,357.044 116.875 C 357.044 116.349,356.778 115.652,356.453 115.327 C 356.128 115.002,355.862 114.517,355.862 114.249 C 355.862 113.492,354.566 110.739,354.210 110.739 C 354.035 110.739,353.892 110.473,353.892 110.148 C 353.892 109.823,353.714 109.557,353.498 109.557 C 353.281 109.557,353.103 109.113,353.103 108.571 C 353.103 107.958,352.880 107.586,352.512 107.586 C 352.177 107.586,351.921 107.233,351.921 106.770 C 351.921 105.258,350.264 104.230,349.796 105.451 " stroke="none" fill="#f41b2a" fill-rule="evenodd"></path><path id="SvgjsPath1001" d="M46.670 69.360 C 46.670 74.020,46.727 75.926,46.797 73.596 C 46.866 71.266,46.866 67.453,46.797 65.123 C 46.727 62.793,46.670 64.700,46.670 69.360 M113.695 171.837 C 106.414 172.783,100.866 176.114,95.402 182.817 C 94.661 183.726,93.833 184.898,93.561 185.422 C 93.290 185.945,92.806 186.868,92.488 187.473 C 91.982 188.431,91.349 189.970,90.252 192.906 C 89.695 194.397,88.991 197.244,88.790 198.818 C 88.680 199.685,88.430 200.563,88.235 200.768 C 88.041 200.974,87.882 201.811,87.882 202.627 C 87.882 203.443,87.593 204.959,87.240 205.996 C 86.337 208.651,86.367 231.554,87.278 234.877 C 87.605 236.069,87.875 237.674,87.877 238.443 C 87.880 239.213,88.041 240.011,88.235 240.217 C 88.430 240.423,88.680 241.300,88.790 242.167 C 88.998 243.799,89.725 246.704,90.269 248.079 C 90.441 248.512,90.665 249.310,90.768 249.852 C 90.965 250.893,91.731 253.186,92.219 254.200 C 92.380 254.532,92.635 255.373,92.788 256.068 C 92.941 256.762,93.229 257.432,93.429 257.556 C 93.629 257.679,93.793 258.110,93.793 258.513 C 93.793 258.917,94.043 259.749,94.349 260.362 C 95.849 263.369,96.946 265.869,96.946 266.278 C 96.946 266.528,97.079 266.791,97.241 266.864 C 97.404 266.936,98.134 268.148,98.864 269.557 C 102.965 277.471,107.600 282.936,110.241 282.970 C 110.840 282.977,111.773 283.237,112.315 283.547 C 112.857 283.857,113.778 284.116,114.361 284.124 C 114.944 284.132,115.531 284.315,115.665 284.532 C 115.799 284.749,116.308 284.926,116.795 284.926 C 117.283 284.926,118.026 285.186,118.447 285.505 C 118.868 285.823,119.591 286.089,120.053 286.096 C 120.516 286.103,121.403 286.373,122.024 286.697 C 122.645 287.021,123.453 287.287,123.819 287.288 C 124.186 287.290,124.595 287.468,124.729 287.685 C 124.863 287.901,125.417 288.079,125.960 288.079 C 126.504 288.079,127.336 288.290,127.809 288.549 C 128.643 289.004,130.010 289.288,134.975 290.036 C 136.276 290.232,138.138 290.577,139.113 290.802 C 141.382 291.327,146.297 291.343,149.678 290.837 C 151.129 290.620,154.000 290.262,156.059 290.043 C 162.018 289.408,164.453 289.025,165.641 288.536 C 166.252 288.284,167.419 288.079,168.236 288.079 C 169.053 288.079,169.851 287.949,170.010 287.789 C 170.321 287.479,173.893 286.591,176.158 286.261 C 176.916 286.150,177.892 285.892,178.325 285.687 C 179.076 285.333,181.161 284.839,184.645 284.190 C 185.520 284.028,186.461 283.755,186.736 283.585 C 187.600 283.051,196.787 281.679,199.606 281.663 C 202.388 281.647,208.099 282.275,208.313 282.621 C 208.426 282.805,209.029 282.956,209.653 282.956 C 210.276 282.956,211.285 283.160,211.896 283.410 C 212.506 283.660,213.892 284.002,214.975 284.171 C 218.504 284.721,221.273 285.373,221.655 285.745 C 221.861 285.945,222.693 286.108,223.504 286.108 C 224.315 286.108,225.080 286.273,225.205 286.475 C 225.329 286.676,226.406 286.963,227.598 287.112 C 228.789 287.261,229.861 287.539,229.979 287.731 C 230.098 287.922,230.905 288.079,231.773 288.079 C 232.642 288.079,233.727 288.279,234.184 288.524 C 235.147 289.039,238.257 289.546,243.491 290.039 C 245.519 290.230,248.365 290.599,249.816 290.858 C 253.501 291.517,266.424 290.562,267.424 289.557 C 267.585 289.394,268.353 289.255,269.130 289.247 C 269.906 289.239,270.985 288.980,271.527 288.670 C 272.069 288.360,272.990 288.100,273.573 288.093 C 274.156 288.085,274.743 287.901,274.877 287.685 C 275.011 287.468,275.509 287.290,275.984 287.288 C 276.459 287.287,277.355 287.021,277.976 286.697 C 278.597 286.373,279.330 286.108,279.606 286.108 C 279.881 286.108,280.615 285.843,281.236 285.520 C 281.857 285.196,282.664 284.930,283.031 284.929 C 283.397 284.927,283.807 284.749,283.941 284.532 C 284.075 284.315,284.761 284.138,285.465 284.138 C 286.170 284.138,287.090 283.878,287.511 283.559 C 287.932 283.241,288.653 282.975,289.114 282.968 C 290.641 282.945,292.595 281.843,293.793 280.328 C 295.955 277.596,297.143 275.873,297.143 275.471 C 297.143 275.253,297.280 275.074,297.447 275.074 C 297.615 275.074,298.101 274.409,298.527 273.596 C 298.954 272.783,299.403 272.030,299.525 271.921 C 300.382 271.161,306.199 258.909,306.219 257.822 C 306.226 257.448,306.492 256.799,306.811 256.378 C 307.129 255.957,307.389 255.214,307.389 254.726 C 307.389 254.239,307.567 253.730,307.783 253.596 C 308.000 253.462,308.177 252.954,308.177 252.466 C 308.177 251.978,308.438 251.235,308.756 250.814 C 309.074 250.394,309.340 249.559,309.347 248.960 C 309.354 248.361,309.516 247.563,309.707 247.187 C 310.446 245.734,310.999 243.201,312.353 235.074 C 313.166 230.192,313.570 211.110,312.911 208.670 C 312.677 207.803,312.321 205.941,312.120 204.532 C 311.404 199.520,311.012 197.528,310.583 196.727 C 310.343 196.280,310.148 195.469,310.148 194.926 C 310.148 194.383,309.970 193.829,309.754 193.695 C 309.537 193.561,309.360 193.090,309.360 192.648 C 309.360 192.207,309.109 191.375,308.804 190.800 C 308.498 190.224,307.958 189.133,307.603 188.374 C 304.096 180.873,296.298 173.864,289.852 172.419 C 285.807 171.513,275.373 171.414,274.840 172.277 C 274.726 172.461,273.955 172.611,273.125 172.611 C 272.296 172.611,271.109 172.876,270.488 173.200 C 269.868 173.523,268.971 173.789,268.496 173.791 C 268.021 173.792,267.523 173.970,267.389 174.187 C 267.255 174.404,266.757 174.587,266.282 174.594 C 265.807 174.601,265.074 174.867,264.654 175.185 C 264.233 175.503,263.583 175.764,263.209 175.764 C 262.835 175.764,262.470 175.897,262.397 176.059 C 262.325 176.222,261.467 176.745,260.490 177.221 C 259.514 177.697,258.324 178.451,257.847 178.896 C 257.369 179.341,256.866 179.704,256.729 179.704 C 255.766 179.704,248.132 186.666,245.113 190.298 C 244.143 191.464,243.142 192.635,242.888 192.899 C 242.421 193.385,242.232 194.073,242.318 194.975 C 242.344 195.252,242.893 195.468,243.566 195.468 C 245.638 195.468,250.246 199.359,250.246 201.109 C 250.246 201.246,250.674 202.294,251.198 203.438 C 252.578 206.455,253.410 209.389,254.862 216.355 C 255.841 221.052,255.850 242.935,254.875 248.867 C 254.519 251.034,254.146 253.340,254.045 253.990 C 253.671 256.415,251.488 263.976,250.574 266.010 C 247.719 272.367,244.312 275.943,241.726 275.294 C 239.117 274.640,235.572 268.648,234.426 262.956 C 234.240 262.034,233.918 260.438,233.709 259.409 C 232.265 252.279,231.443 237.373,232.074 229.754 C 232.316 226.828,232.592 223.458,232.687 222.266 C 232.860 220.098,233.840 213.703,234.228 212.217 C 234.780 210.102,234.814 208.473,234.306 208.473 C 233.529 208.473,232.787 209.647,229.099 216.723 C 227.920 218.984,226.387 221.645,225.691 222.634 C 224.996 223.624,224.098 225.143,223.697 226.010 C 223.295 226.877,222.837 227.852,222.679 228.177 C 222.223 229.114,219.843 233.381,219.052 234.680 C 218.656 235.330,218.210 236.128,218.061 236.453 C 217.587 237.486,213.067 241.990,211.629 242.863 C 210.869 243.325,210.158 243.800,210.049 243.920 C 209.587 244.430,207.167 245.517,206.494 245.517 C 206.091 245.517,205.651 245.695,205.517 245.911 C 205.149 246.507,195.553 246.398,193.892 245.780 C 188.597 243.809,183.367 239.548,180.993 235.271 C 177.337 228.685,177.535 229.059,176.300 226.404 C 175.897 225.537,174.759 223.586,173.771 222.069 C 172.783 220.552,171.631 218.628,171.209 217.794 C 170.788 216.960,170.000 215.808,169.458 215.233 L 168.473 214.187 168.356 215.778 C 168.291 216.654,168.457 218.427,168.724 219.719 C 169.410 223.039,169.432 248.718,168.754 253.990 C 166.730 269.728,161.673 278.138,156.478 274.403 C 155.106 273.418,151.724 268.916,151.724 268.076 C 151.724 267.718,150.872 265.732,150.122 264.340 C 149.920 263.964,149.754 263.349,149.754 262.974 C 149.754 262.599,149.506 261.577,149.203 260.703 C 145.436 249.821,144.390 225.182,147.217 213.898 C 147.528 212.655,147.783 211.221,147.783 210.712 C 147.783 210.203,147.891 209.679,148.023 209.547 C 148.154 209.415,148.778 207.771,149.409 205.894 C 150.665 202.157,152.084 199.424,153.661 197.708 C 154.813 196.453,154.927 194.158,154.012 190.588 C 153.392 188.170,143.078 178.522,141.113 178.522 C 140.880 178.522,140.690 178.385,140.690 178.216 C 140.690 178.048,139.893 177.561,138.920 177.133 C 137.947 176.705,137.149 176.222,137.147 176.059 C 137.145 175.897,136.810 175.764,136.403 175.764 C 135.996 175.764,135.442 175.498,135.172 175.172 C 134.903 174.847,134.346 174.581,133.937 174.581 C 133.527 174.581,132.883 174.429,132.507 174.243 C 131.140 173.567,127.751 172.611,126.719 172.611 C 126.138 172.611,125.364 172.456,124.999 172.268 C 124.031 171.768,116.450 171.478,113.695 171.837 M124.138 172.790 C 125.980 173.098,128.020 173.517,128.670 173.722 C 129.320 173.927,130.650 174.322,131.626 174.599 C 133.636 175.169,141.457 179.074,142.541 180.048 C 142.933 180.401,144.234 181.434,145.431 182.345 C 150.801 186.428,153.088 189.242,153.662 192.473 L 154.185 195.415 152.803 197.117 C 137.733 215.676,145.547 285.048,161.640 275.567 C 168.381 271.595,172.687 244.838,170.085 223.090 C 169.737 220.184,169.554 217.703,169.679 217.579 C 169.918 217.340,171.405 219.086,171.420 219.623 C 171.425 219.795,172.098 220.859,172.915 221.987 C 173.733 223.116,175.361 225.990,176.533 228.374 C 182.526 240.567,187.926 245.529,196.919 247.108 C 207.472 248.960,216.016 242.897,223.319 228.374 C 224.409 226.207,225.998 223.358,226.850 222.043 C 227.701 220.729,229.159 218.157,230.088 216.329 C 232.972 210.655,233.660 210.215,232.757 214.621 C 229.339 231.289,230.762 258.008,235.689 269.671 C 241.561 283.573,251.534 274.510,255.328 251.823 C 255.563 250.414,256.002 247.789,256.303 245.991 C 257.068 241.414,256.888 222.231,256.036 217.494 C 255.270 213.237,253.923 207.464,253.334 205.911 C 250.536 198.536,247.520 194.680,244.552 194.680 C 239.165 194.680,256.302 179.124,265.616 175.560 C 266.591 175.186,267.744 174.743,268.177 174.574 C 277.574 170.917,291.113 171.824,296.812 176.493 C 297.102 176.731,298.433 177.810,299.768 178.892 C 302.165 180.832,305.808 185.748,307.088 188.768 C 308.891 193.023,309.388 194.498,310.272 198.227 C 313.133 210.278,313.568 227.219,311.290 237.833 C 307.940 253.444,304.076 263.548,297.498 273.892 C 293.103 280.805,292.726 281.159,288.276 282.567 C 286.108 283.253,281.764 284.671,278.621 285.718 C 268.344 289.141,258.215 290.902,252.639 290.237 C 251.648 290.119,248.709 289.854,246.108 289.648 C 241.952 289.320,239.368 288.935,233.103 287.709 C 231.453 287.386,226.626 286.223,221.281 284.860 C 219.547 284.418,217.311 283.912,216.312 283.736 C 215.313 283.559,213.806 283.233,212.962 283.012 C 210.342 282.322,207.982 281.830,205.320 281.418 C 203.911 281.200,202.106 280.919,201.309 280.794 C 199.931 280.577,193.303 281.390,190.345 282.137 C 189.586 282.329,187.547 282.798,185.813 283.179 C 184.079 283.560,181.330 284.211,179.704 284.626 C 176.683 285.397,176.166 285.521,171.034 286.703 C 165.639 287.946,158.605 289.255,156.059 289.489 C 140.224 290.945,135.027 290.394,121.576 285.831 C 116.024 283.948,112.786 282.935,109.835 282.158 C 105.591 281.042,98.298 269.062,92.807 254.187 C 87.296 239.260,85.441 216.000,88.643 201.970 C 91.208 190.727,92.886 186.790,97.192 181.908 C 100.788 177.832,102.234 176.697,106.736 174.416 C 110.897 172.307,117.535 171.687,124.138 172.790 " stroke="none" fill="#f6c4f4" fill-rule="evenodd"></path><path id="SvgjsPath1000" d="M216.681 30.146 C 216.345 30.488,216.728 33.050,217.270 34.089 C 217.497 34.522,217.815 35.586,217.978 36.453 C 219.155 42.734,218.873 42.385,223.251 42.951 C 230.088 43.834,231.546 44.046,233.892 44.497 C 238.570 45.398,240.235 45.754,242.562 46.352 C 243.862 46.686,245.547 47.108,246.305 47.291 C 249.397 48.034,252.855 48.973,253.596 49.271 C 254.030 49.446,255.360 49.896,256.552 50.271 C 259.266 51.127,263.741 52.675,265.813 53.476 C 266.680 53.810,267.744 54.219,268.177 54.384 C 268.611 54.549,269.764 54.992,270.739 55.369 C 271.714 55.746,272.867 56.186,273.300 56.347 C 273.734 56.508,274.760 56.930,275.580 57.285 C 278.160 58.402,280.633 57.335,285.714 52.909 C 286.256 52.438,286.992 51.823,287.349 51.543 C 287.707 51.263,288.130 50.591,288.291 50.049 C 288.550 49.171,288.437 49.221,287.247 50.510 C 285.153 52.777,280.679 56.221,278.322 57.380 C 277.877 57.599,276.063 56.967,274.193 55.942 C 273.816 55.735,273.254 55.567,272.944 55.567 C 272.633 55.567,271.788 55.270,271.066 54.909 C 268.684 53.715,268.390 53.596,267.821 53.596 C 267.510 53.596,266.665 53.300,265.943 52.938 C 263.555 51.742,263.267 51.626,262.679 51.626 C 262.358 51.626,261.513 51.381,260.802 51.081 C 260.090 50.781,258.532 50.234,257.340 49.865 C 256.148 49.496,254.818 49.045,254.384 48.863 C 253.951 48.681,253.153 48.441,252.611 48.329 C 250.656 47.925,248.065 47.191,247.395 46.850 C 247.018 46.659,246.253 46.502,245.694 46.502 C 245.135 46.502,244.322 46.313,243.889 46.080 C 243.076 45.645,240.650 45.125,236.818 44.563 C 235.611 44.385,234.248 44.040,233.790 43.795 C 233.333 43.550,231.893 43.350,230.591 43.350 C 229.289 43.350,228.131 43.199,228.017 43.016 C 227.904 42.832,226.170 42.565,224.164 42.423 C 219.961 42.124,219.506 41.832,219.214 39.243 C 219.101 38.241,218.855 37.325,218.667 37.209 C 218.479 37.093,218.325 36.427,218.325 35.729 C 218.325 35.032,218.072 34.099,217.762 33.657 C 217.452 33.215,217.142 32.183,217.072 31.365 C 217.003 30.546,216.827 29.997,216.681 30.146 M174.982 32.870 C 175.412 34.150,175.764 35.755,175.764 36.436 C 175.764 37.117,175.920 37.843,176.112 38.049 C 176.303 38.255,176.579 39.260,176.725 40.282 C 177.042 42.504,177.197 42.445,169.064 43.202 C 167.655 43.333,166.287 43.613,166.025 43.825 C 165.762 44.037,164.471 44.308,163.156 44.427 C 161.841 44.546,160.672 44.796,160.557 44.982 C 160.442 45.168,159.604 45.326,158.696 45.334 C 157.788 45.342,156.601 45.602,156.059 45.911 C 155.517 46.221,154.527 46.481,153.859 46.488 C 153.190 46.496,152.511 46.635,152.348 46.798 C 152.056 47.090,149.078 47.923,146.798 48.350 C 146.148 48.472,145.438 48.703,145.222 48.862 C 145.005 49.022,143.764 49.461,142.463 49.837 C 141.163 50.214,139.744 50.678,139.310 50.868 C 138.877 51.058,137.635 51.494,136.552 51.836 C 135.468 52.178,134.049 52.695,133.399 52.986 C 132.207 53.517,131.706 53.720,128.473 54.982 C 127.498 55.362,126.167 55.895,125.517 56.166 C 121.451 57.859,121.824 57.906,118.133 55.225 C 116.291 53.887,114.140 52.166,113.353 51.402 C 112.467 50.541,111.921 50.231,111.921 50.588 C 111.921 51.106,113.809 52.797,116.821 54.975 C 117.421 55.409,118.539 56.251,119.305 56.847 C 121.345 58.433,122.290 58.278,129.458 55.180 C 129.892 54.993,131.133 54.529,132.217 54.150 C 133.300 53.771,134.365 53.343,134.581 53.199 C 134.798 53.055,136.039 52.614,137.340 52.218 C 138.640 51.822,139.970 51.368,140.296 51.207 C 140.621 51.047,141.951 50.596,143.251 50.205 C 144.552 49.813,145.784 49.352,145.990 49.180 C 146.196 49.008,146.733 48.867,147.183 48.867 C 147.634 48.867,149.327 48.451,150.947 47.942 C 155.529 46.503,166.824 44.159,173.202 43.324 C 178.106 42.682,178.162 42.642,177.469 40.308 C 176.355 36.559,176.226 36.030,175.975 34.204 C 175.835 33.184,175.378 31.943,174.960 31.446 C 174.218 30.564,174.219 30.598,174.982 32.870 M349.653 104.926 C 349.166 105.928,348.887 107.136,348.356 110.542 C 348.153 111.842,347.795 113.731,347.560 114.739 C 347.168 116.421,347.216 116.703,348.147 118.179 C 348.706 119.064,349.163 119.883,349.163 119.999 C 349.163 120.116,350.068 121.671,351.175 123.455 C 353.675 127.484,355.217 130.240,356.959 133.793 C 357.703 135.310,358.484 136.882,358.694 137.285 C 359.439 138.714,361.832 146.445,362.432 149.360 C 363.594 155.006,364.829 164.127,365.365 171.034 C 365.593 173.960,365.841 176.416,365.917 176.492 C 366.457 177.032,366.897 175.716,366.897 173.560 C 366.897 172.157,367.163 170.373,367.488 169.594 C 368.218 167.846,368.227 167.488,367.537 167.488 C 366.966 167.488,366.507 169.118,366.496 171.182 C 366.492 172.122,366.400 172.274,366.108 171.823 C 365.898 171.498,365.724 169.599,365.720 167.605 C 365.717 165.610,365.537 163.571,365.321 163.073 C 365.104 162.575,364.744 160.571,364.521 158.621 C 363.741 151.816,362.558 146.017,361.183 142.266 C 359.963 138.936,358.526 135.310,358.150 134.613 C 357.926 134.197,357.080 132.601,356.270 131.066 C 355.460 129.532,354.062 127.076,353.162 125.609 C 352.263 124.142,351.527 122.829,351.527 122.690 C 351.527 122.552,351.084 121.858,350.542 121.147 C 350.000 120.437,349.557 119.659,349.557 119.419 C 349.557 119.179,349.211 118.502,348.788 117.915 C 347.973 116.784,348.222 111.314,349.169 109.544 C 349.382 109.146,349.557 108.202,349.557 107.447 C 349.557 105.670,349.894 104.828,350.607 104.828 C 350.922 104.828,351.070 104.650,350.936 104.433 C 350.548 103.806,350.117 103.971,349.653 104.926 M48.867 105.222 C 48.867 105.438,49.114 105.616,49.416 105.616 C 50.127 105.616,50.443 106.482,50.443 108.433 C 50.443 109.296,50.632 110.355,50.862 110.785 C 51.653 112.262,51.805 116.799,51.084 117.397 C 50.732 117.690,50.443 118.136,50.443 118.389 C 50.443 118.642,49.307 119.958,47.918 121.314 C 46.530 122.669,45.106 124.384,44.755 125.124 C 44.404 125.864,43.944 126.576,43.733 126.706 C 43.522 126.836,43.350 127.199,43.350 127.513 C 43.350 127.826,42.906 129.002,42.365 130.125 C 41.823 131.248,41.379 132.394,41.379 132.671 C 41.379 133.141,40.551 135.267,39.755 136.842 C 39.565 137.218,39.409 137.933,39.409 138.429 C 39.409 138.926,39.166 139.682,38.869 140.109 C 38.572 140.537,38.226 141.507,38.101 142.266 C 37.975 143.025,37.684 144.781,37.455 146.170 C 37.226 147.559,36.880 148.889,36.686 149.126 C 36.493 149.363,36.239 150.532,36.122 151.724 C 35.654 156.511,35.042 160.639,34.674 161.496 C 34.461 161.994,34.273 163.679,34.258 165.240 C 34.226 168.548,33.785 170.262,33.381 168.652 C 33.144 167.711,30.739 165.875,30.739 166.635 C 30.739 166.841,30.986 167.104,31.288 167.220 C 31.635 167.353,31.931 168.347,32.093 169.922 C 32.814 176.929,32.757 176.673,33.424 176.006 C 33.872 175.558,34.172 173.813,34.529 169.567 C 34.799 166.364,35.317 161.793,35.681 159.409 C 36.045 157.025,36.493 154.099,36.675 152.906 C 36.974 150.956,37.361 149.031,38.581 143.448 C 38.794 142.473,39.519 140.079,40.193 138.128 C 40.866 136.177,41.561 134.049,41.736 133.399 C 42.041 132.267,43.385 129.070,44.192 127.557 C 44.402 127.162,44.935 126.147,45.376 125.302 C 45.817 124.456,47.227 122.749,48.510 121.508 C 52.404 117.742,52.830 115.857,51.259 109.360 C 51.049 108.493,50.772 107.118,50.643 106.305 C 50.425 104.939,48.867 103.988,48.867 105.222 " stroke="none" fill="#f04c9c" fill-rule="evenodd"></path></g></svg><style>@media (prefers-color-scheme: light) { :root { filter: none; } }
</style></svg>